<svg width="47" height="31" viewBox="0 0 47 31" fill="none" xmlns="http://www.w3.org/2000/svg">
<path d="M28.8308 21.0463C35.1413 17.5059 43.1257 19.6981 46.7436 25.9646L41.2989 29.1081C34.9594 32.7682 26.8514 30.5504 23.2575 24.1731L28.8308 21.0463Z" fill="#FF6665"/>
<path d="M26.5222 18.5644C30.1272 12.3204 38.1114 10.181 44.3554 13.786L41.0917 19.4389C37.4867 25.6829 29.5025 27.8222 23.2585 24.2173L26.5222 18.5644Z" fill="#FF6665" fill-opacity="0.8"/>
<path d="M22.9761 17.9595C22.9761 10.3867 29.1151 4.24774 36.6879 4.24774V10.6465C36.6879 18.2193 30.5489 24.3583 22.9761 24.3583V17.9595Z" fill="#FF6665" fill-opacity="0.8"/>
<path d="M19.7412 18.2203C16.1362 11.9763 18.2756 3.99207 24.5196 0.387085L27.7833 6.03997C31.3883 12.284 29.2489 20.2682 23.0049 23.8732L19.7412 18.2203Z" fill="#FF6665" fill-opacity="0.8"/>
<path d="M22.9763 17.0454C22.9763 9.97744 17.2466 4.24774 10.1787 4.24774V11.5607C10.1787 18.6286 15.9084 24.3583 22.9763 24.3583V17.0454Z" fill="#FF6665" fill-opacity="0.8"/>
<path d="M20.2216 18.5644C16.6166 12.3204 8.63238 10.181 2.38837 13.786L5.65206 19.4389C9.25705 25.6829 17.2412 27.8222 23.4853 24.2173L20.2216 18.5644Z" fill="#FF6665" fill-opacity="0.8"/>
<path d="M17.9128 21.0463C11.6022 17.5059 3.61793 19.6981 0 25.9646L5.44472 29.1081C11.7842 32.7682 19.8921 30.5504 23.4861 24.1731L17.9128 21.0463Z" fill="#FF6665"/>
</svg>
