<svg width="21" height="21" viewBox="0 0 21 21" fill="none" xmlns="http://www.w3.org/2000/svg">
<path d="M15.6013 8.4043C15.6013 7.50146 15.4235 6.60746 15.078 5.77335C14.7325 4.93924 14.2261 4.18134 13.5877 3.54294C12.9493 2.90453 12.1914 2.39813 11.3573 2.05263C10.5232 1.70712 9.62916 1.5293 8.72632 1.5293C7.82348 1.5293 6.92948 1.70712 6.09537 2.05263C5.26126 2.39813 4.50336 2.90453 3.86496 3.54294C3.22656 4.18134 2.72015 4.93924 2.37465 5.77335C2.02915 6.60746 1.85132 7.50146 1.85132 8.4043C1.85132 9.30713 2.02915 10.2011 2.37465 11.0352C2.72015 11.8694 3.22656 12.6273 3.86496 13.2657C4.50336 13.9041 5.26126 14.4105 6.09537 14.756C6.92948 15.1015 7.82348 15.2793 8.72632 15.2793C9.62916 15.2793 10.5232 15.1015 11.3573 14.756C12.1914 14.4105 12.9493 13.9041 13.5877 13.2657C14.2261 12.6273 14.7325 11.8694 15.078 11.0352C15.4235 10.2011 15.6013 9.30713 15.6013 8.4043ZM14.0115 14.5762C12.5935 15.7949 10.7458 16.5293 8.72632 16.5293C4.23804 16.5293 0.601318 12.8926 0.601318 8.4043C0.601318 3.91602 4.23804 0.279297 8.72632 0.279297C13.2146 0.279297 16.8513 3.91602 16.8513 8.4043C16.8513 10.4238 16.1169 12.2715 14.8982 13.6895L20.5427 19.3379L19.6599 20.2207L14.0115 14.5762Z" fill="#8C9094"/>
</svg>
