<svg width="116" height="17" viewBox="0 0 116 17" fill="none" xmlns="http://www.w3.org/2000/svg">
<path d="M16.0115 2.16867V16.3402H13.1691V7.12262L9.37238 16.3402H7.22025L3.40328 7.12262V16.3402H0.560852V2.16867H3.78904L8.29632 12.706L12.8036 2.16867H16.0115Z" fill="black"/>
<path d="M19.4511 3.75231C18.9503 3.75231 18.5307 3.59665 18.1923 3.28534C17.8675 2.96049 17.705 2.5612 17.705 2.08746C17.705 1.61372 17.8675 1.22119 18.1923 0.909881C18.5307 0.585032 18.9503 0.422607 19.4511 0.422607C19.9519 0.422607 20.3647 0.585032 20.6896 0.909881C21.028 1.22119 21.1972 1.61372 21.1972 2.08746C21.1972 2.5612 21.028 2.96049 20.6896 3.28534C20.3647 3.59665 19.9519 3.75231 19.4511 3.75231ZM20.852 5.09231V16.3402H18.0096V5.09231H20.852Z" fill="black"/>
<path d="M29.0813 4.92989C30.4213 4.92989 31.5041 5.35625 32.3297 6.20898C33.1554 7.04817 33.5682 8.22575 33.5682 9.74171V16.3402H30.7258V10.1275C30.7258 9.23414 30.5025 8.5506 30.0558 8.07686C29.6091 7.58959 29 7.34595 28.2285 7.34595C27.4435 7.34595 26.8208 7.58959 26.3606 8.07686C25.914 8.5506 25.6906 9.23414 25.6906 10.1275V16.3402H22.8482V5.09231H25.6906V6.49322C26.0696 6.00595 26.5501 5.62696 27.1322 5.35625C27.7277 5.07201 28.3774 4.92989 29.0813 4.92989Z" fill="black"/>
<path d="M34.7282 10.6757C34.7282 9.53868 34.9515 8.5303 35.3982 7.6505C35.8584 6.7707 36.481 6.09393 37.2661 5.62019C38.0511 5.14645 38.9242 4.90958 39.8852 4.90958C40.6161 4.90958 41.3132 5.07201 41.9764 5.39686C42.6396 5.70817 43.1675 6.12777 43.56 6.65565V1.31594H46.4431V16.3402H43.56V14.6754C43.2081 15.2303 42.7141 15.677 42.0779 16.0154C41.4417 16.3537 40.7041 16.5229 39.8649 16.5229C38.9174 16.5229 38.0511 16.2793 37.2661 15.792C36.481 15.3048 35.8584 14.6212 35.3982 13.7414C34.9515 12.8481 34.7282 11.8262 34.7282 10.6757ZM43.5803 10.7163C43.5803 10.026 43.445 9.43717 43.1743 8.94989C42.9036 8.44908 42.5381 8.07009 42.0779 7.81292C41.6177 7.54221 41.1237 7.40686 40.5958 7.40686C40.0679 7.40686 39.5806 7.53545 39.134 7.79262C38.6873 8.04979 38.3218 8.42878 38.0376 8.92959C37.7669 9.41686 37.6315 9.99888 37.6315 10.6757C37.6315 11.3524 37.7669 11.948 38.0376 12.4623C38.3218 12.9631 38.6873 13.3489 39.134 13.6196C39.5942 13.8903 40.0814 14.0257 40.5958 14.0257C41.1237 14.0257 41.6177 13.8971 42.0779 13.6399C42.5381 13.3692 42.9036 12.9902 43.1743 12.5029C43.445 12.0021 43.5803 11.4066 43.5803 10.7163Z" fill="black"/>
<path d="M53.564 7.42716H51.5946V16.3402H48.7116V7.42716H47.4325V5.09231H48.7116V4.52383C48.7116 3.14322 49.1041 2.12806 49.8892 1.47837C50.6742 0.828669 51.8586 0.524123 53.4422 0.564729V2.96049C52.7519 2.94695 52.2714 3.06201 52.0007 3.30564C51.73 3.54928 51.5946 3.98918 51.5946 4.62534V5.09231H53.564V7.42716Z" fill="black"/>
<path d="M65.2124 5.09231V16.3402H62.3497V14.919C61.9843 15.4063 61.5038 15.792 60.9082 16.0763C60.3262 16.347 59.69 16.4823 58.9997 16.4823C58.1199 16.4823 57.3416 16.2996 56.6649 15.9341C55.9881 15.5552 55.4534 15.007 55.0609 14.2896C54.6819 13.5587 54.4924 12.6924 54.4924 11.6908V5.09231H57.3349V11.2847C57.3349 12.1781 57.5582 12.8684 58.0049 13.3557C58.4515 13.8294 59.0606 14.0663 59.8321 14.0663C60.6172 14.0663 61.2331 13.8294 61.6797 13.3557C62.1264 12.8684 62.3497 12.1781 62.3497 11.2847V5.09231H65.2124Z" fill="black"/>
<path d="M70.0473 1.31594V16.3402H67.2048V1.31594H70.0473Z" fill="black"/>
<path d="M78.2765 4.92989C79.6165 4.92989 80.6993 5.35625 81.525 6.20898C82.3507 7.04817 82.7635 8.22575 82.7635 9.74171V16.3402H79.9211V10.1275C79.9211 9.23414 79.6977 8.5506 79.2511 8.07686C78.8044 7.58959 78.1953 7.34595 77.4238 7.34595C76.6387 7.34595 76.0161 7.58959 75.5559 8.07686C75.1092 8.5506 74.8859 9.23414 74.8859 10.1275V16.3402H72.0435V5.09231H74.8859V6.49322C75.2649 6.00595 75.7454 5.62696 76.3274 5.35625C76.923 5.07201 77.5727 4.92989 78.2765 4.92989Z" fill="black"/>
<path d="M95.1104 10.4726C95.1104 10.8787 95.0834 11.2441 95.0292 11.569H86.8065C86.8742 12.3811 87.1584 13.0173 87.6592 13.4775C88.16 13.9377 88.7759 14.1678 89.5068 14.1678C90.5626 14.1678 91.3138 13.7143 91.7604 12.8075H94.8262C94.5014 13.8903 93.8787 14.7836 92.9583 15.4875C92.0379 16.1778 90.9077 16.5229 89.5677 16.5229C88.4849 16.5229 87.5103 16.2861 86.6441 15.8123C85.7913 15.3251 85.1213 14.6415 84.6341 13.7617C84.1603 12.8819 83.9235 11.8668 83.9235 10.7163C83.9235 9.55222 84.1603 8.5303 84.6341 7.6505C85.1078 6.7707 85.771 6.09393 86.6238 5.62019C87.4765 5.14645 88.4578 4.90958 89.5677 4.90958C90.637 4.90958 91.5912 5.13969 92.4304 5.59989C93.2832 6.06009 93.9396 6.71656 94.3998 7.56928C94.8736 8.40848 95.1104 9.37626 95.1104 10.4726ZM92.1665 9.6605C92.153 8.92959 91.889 8.34757 91.3747 7.91444C90.8603 7.46777 90.2309 7.24444 89.4865 7.24444C88.7827 7.24444 88.1871 7.461 87.6998 7.89413C87.2261 8.31373 86.9351 8.90252 86.8268 9.6605H92.1665Z" fill="black"/>
<path d="M100.677 16.5229C99.7569 16.5229 98.9312 16.3605 98.2003 16.0357C97.4694 15.6973 96.8874 15.2438 96.4543 14.6754C96.0347 14.1069 95.8046 13.4775 95.7639 12.7872H98.6267C98.6808 13.2203 98.8906 13.579 99.2561 13.8632C99.6351 14.1475 100.102 14.2896 100.657 14.2896C101.198 14.2896 101.618 14.1813 101.916 13.9647C102.227 13.7482 102.383 13.4707 102.383 13.1323C102.383 12.7669 102.193 12.4962 101.814 12.3202C101.449 12.1307 100.86 11.9277 100.048 11.7111C99.2087 11.5081 98.5184 11.2983 97.977 11.0817C97.4491 10.8651 96.9889 10.5335 96.5964 10.0869C96.2174 9.6402 96.0279 9.03787 96.0279 8.27989C96.0279 7.65726 96.2038 7.08878 96.5558 6.57443C96.9212 6.06009 97.4356 5.65403 98.0988 5.35625C98.7756 5.05847 99.5674 4.90958 100.474 4.90958C101.814 4.90958 102.884 5.24797 103.682 5.92474C104.481 6.58797 104.921 7.48807 105.002 8.62504H102.281C102.241 8.17838 102.051 7.82646 101.713 7.56928C101.388 7.29858 100.948 7.16322 100.393 7.16322C99.8787 7.16322 99.4794 7.25797 99.1952 7.44747C98.9245 7.63696 98.7891 7.9009 98.7891 8.23929C98.7891 8.61828 98.9786 8.90929 99.3576 9.11232C99.7366 9.30181 100.325 9.49808 101.124 9.70111C101.936 9.90414 102.606 10.1139 103.134 10.3305C103.662 10.5471 104.115 10.8855 104.494 11.3457C104.887 11.7923 105.09 12.3879 105.103 13.1323C105.103 13.782 104.921 14.364 104.555 14.8784C104.203 15.3927 103.689 15.7988 103.012 16.0966C102.349 16.3808 101.571 16.5229 100.677 16.5229Z" fill="black"/>
<path d="M110.929 16.5229C110.008 16.5229 109.183 16.3605 108.452 16.0357C107.721 15.6973 107.139 15.2438 106.706 14.6754C106.286 14.1069 106.056 13.4775 106.015 12.7872H108.878C108.932 13.2203 109.142 13.579 109.508 13.8632C109.887 14.1475 110.353 14.2896 110.908 14.2896C111.45 14.2896 111.869 14.1813 112.167 13.9647C112.479 13.7482 112.634 13.4707 112.634 13.1323C112.634 12.7669 112.445 12.4962 112.066 12.3202C111.7 12.1307 111.111 11.9277 110.299 11.7111C109.46 11.5081 108.77 11.2983 108.228 11.0817C107.701 10.8651 107.24 10.5335 106.848 10.0869C106.469 9.6402 106.279 9.03787 106.279 8.27989C106.279 7.65726 106.455 7.08878 106.807 6.57443C107.173 6.06009 107.687 5.65403 108.35 5.35625C109.027 5.05847 109.819 4.90958 110.726 4.90958C112.066 4.90958 113.135 5.24797 113.934 5.92474C114.732 6.58797 115.172 7.48807 115.253 8.62504H112.533C112.492 8.17838 112.303 7.82646 111.964 7.56928C111.639 7.29858 111.199 7.16322 110.645 7.16322C110.13 7.16322 109.731 7.25797 109.447 7.44747C109.176 7.63696 109.041 7.9009 109.041 8.23929C109.041 8.61828 109.23 8.90929 109.609 9.11232C109.988 9.30181 110.577 9.49808 111.375 9.70111C112.188 9.90414 112.858 10.1139 113.385 10.3305C113.913 10.5471 114.367 10.8855 114.746 11.3457C115.138 11.7923 115.341 12.3879 115.355 13.1323C115.355 13.782 115.172 14.364 114.807 14.8784C114.455 15.3927 113.94 15.7988 113.264 16.0966C112.6 16.3808 111.822 16.5229 110.929 16.5229Z" fill="black"/>
</svg>
