<svg width="20" height="21" viewBox="0 0 20 21" fill="none" xmlns="http://www.w3.org/2000/svg">
<path d="M14.125 5.75C14.125 5.25754 14.0183 4.76991 13.811 4.31494C13.6037 3.85997 13.2999 3.44657 12.9168 3.09835C12.5338 2.75013 12.079 2.47391 11.5786 2.28545C11.0781 2.097 10.5417 2 10 2C9.4583 2 8.9219 2.097 8.42143 2.28545C7.92096 2.47391 7.46623 2.75013 7.08318 3.09835C6.70014 3.44657 6.3963 3.85997 6.189 4.31494C5.9817 4.76991 5.875 5.25754 5.875 5.75C5.875 6.24246 5.9817 6.73009 6.189 7.18506C6.3963 7.64003 6.70014 8.05343 7.08318 8.40165C7.46623 8.74987 7.92096 9.02609 8.42143 9.21455C8.9219 9.403 9.4583 9.5 10 9.5C10.5417 9.5 11.0781 9.403 11.5786 9.21455C12.079 9.02609 12.5338 8.74987 12.9168 8.40165C13.2999 8.05343 13.6037 7.64003 13.811 7.18506C14.0183 6.73009 14.125 6.24246 14.125 5.75ZM4.5 5.75C4.5 4.42392 5.07946 3.15215 6.11091 2.21447C7.14236 1.27678 8.54131 0.75 10 0.75C11.4587 0.75 12.8576 1.27678 13.8891 2.21447C14.9205 3.15215 15.5 4.42392 15.5 5.75C15.5 7.07608 14.9205 8.34785 13.8891 9.28553C12.8576 10.2232 11.4587 10.75 10 10.75C8.54131 10.75 7.14236 10.2232 6.11091 9.28553C5.07946 8.34785 4.5 7.07608 4.5 5.75ZM2.23555 19.5H17.7645L15.8609 13.875H4.13906L2.23555 19.5ZM3.125 12.625H16.875L19.2039 19.5L19.625 20.75H18.1855H1.81445H0.375L0.796094 19.5L3.125 12.625Z" fill="#242A31"/>
</svg>
