<svg width="24" height="21" viewBox="0 0 24 21" fill="none" xmlns="http://www.w3.org/2000/svg">
<path d="M1.375 0.75H0.75V2H1.375H3.375L6.39062 15.2617L6.5 15.75H7H20.125H20.75V14.5H20.125H7.5L6.93359 12H20.125L22.8594 3.25L23.25 2H21.9414H4.65625L4.48438 1.23828L4.375 0.75H3.875H1.375ZM4.94141 3.25H21.5508L19.207 10.75H6.64844L4.94141 3.25ZM7.9375 17.625C8.18614 17.625 8.4246 17.7238 8.60041 17.8996C8.77623 18.0754 8.875 18.3139 8.875 18.5625C8.875 18.8111 8.77623 19.0496 8.60041 19.2254C8.4246 19.4012 8.18614 19.5 7.9375 19.5C7.68886 19.5 7.4504 19.4012 7.27459 19.2254C7.09877 19.0496 7 18.8111 7 18.5625C7 18.3139 7.09877 18.0754 7.27459 17.8996C7.4504 17.7238 7.68886 17.625 7.9375 17.625ZM7.9375 20.75C8.51766 20.75 9.07406 20.5195 9.4843 20.1093C9.89453 19.6991 10.125 19.1427 10.125 18.5625C10.125 17.9823 9.89453 17.4259 9.4843 17.0157C9.07406 16.6055 8.51766 16.375 7.9375 16.375C7.35734 16.375 6.80094 16.6055 6.3907 17.0157C5.98047 17.4259 5.75 17.9823 5.75 18.5625C5.75 19.1427 5.98047 19.6991 6.3907 20.1093C6.80094 20.5195 7.35734 20.75 7.9375 20.75ZM17.625 18.5625C17.625 18.3139 17.7238 18.0754 17.8996 17.8996C18.0754 17.7238 18.3139 17.625 18.5625 17.625C18.8111 17.625 19.0496 17.7238 19.2254 17.8996C19.4012 18.0754 19.5 18.3139 19.5 18.5625C19.5 18.8111 19.4012 19.0496 19.2254 19.2254C19.0496 19.4012 18.8111 19.5 18.5625 19.5C18.3139 19.5 18.0754 19.4012 17.8996 19.2254C17.7238 19.0496 17.625 18.8111 17.625 18.5625ZM20.75 18.5625C20.75 17.9823 20.5195 17.4259 20.1093 17.0157C19.6991 16.6055 19.1427 16.375 18.5625 16.375C17.9823 16.375 17.4259 16.6055 17.0157 17.0157C16.6055 17.4259 16.375 17.9823 16.375 18.5625C16.375 19.1427 16.6055 19.6991 17.0157 20.1093C17.4259 20.5195 17.9823 20.75 18.5625 20.75C19.1427 20.75 19.6991 20.5195 20.1093 20.1093C20.5195 19.6991 20.75 19.1427 20.75 18.5625Z" fill="#242A31"/>
</svg>
